<?xml version="1.0" encoding="UTF-8" standalone="no"?>
<svg
   xmlns:dc="http://purl.org/dc/elements/1.1/"
   xmlns:cc="http://creativecommons.org/ns#"
   xmlns:rdf="http://www.w3.org/1999/02/22-rdf-syntax-ns#"
   xmlns:svg="http://www.w3.org/2000/svg"
   xmlns="http://www.w3.org/2000/svg"
   xmlns:xlink="http://www.w3.org/1999/xlink"
   xmlns:sodipodi="http://sodipodi.sourceforge.net/DTD/sodipodi-0.dtd"
   xmlns:inkscape="http://www.inkscape.org/namespaces/inkscape"
   version="1.0"
   x="0.00000000"
   y="0.00000000"
   width="241"
   height="88"
   id="pekwm-logo"
   sodipodi:version="0.32"
   inkscape:version="1.0.2 (e86c8708, 2021-01-15)"
   sodipodi:docname="pekwm_logo.svg"
   inkscape:output_extension="org.inkscape.output.svg.inkscape">
  <metadata
     id="metadata7">
    <rdf:RDF>
      <cc:Work
         rdf:about="">
        <dc:format>image/svg+xml</dc:format>
        <dc:type
           rdf:resource="http://purl.org/dc/dcmitype/StillImage" />
      </cc:Work>
    </rdf:RDF>
  </metadata>
  <sodipodi:namedview
     id="base"
     pagecolor="#ffffff"
     bordercolor="#666666"
     borderopacity="1.0"
     inkscape:pageopacity="0.0"
     inkscape:pageshadow="2"
     inkscape:zoom="4.125"
     inkscape:cx="120.45442"
     inkscape:cy="44.719747"
     inkscape:window-width="1310"
     inkscape:window-height="776"
     inkscape:window-x="126"
     inkscape:window-y="51"
     inkscape:current-layer="pekwm-logo"
     showgrid="false"
     inkscape:document-rotation="0"
     inkscape:window-maximized="0" />
  <defs
     id="defs3">
    <inkscape:perspective
       sodipodi:type="inkscape:persp3d"
       inkscape:vp_x="0 : 504.18109 : 1"
       inkscape:vp_y="0 : 1000 : 0"
       inkscape:vp_z="744.09448 : 504.18109 : 1"
       inkscape:persp3d-origin="372.04724 : 328.78739 : 1"
       id="perspective2459" />
    <linearGradient
       id="linearGradient4187">
      <stop
         style="stop-color:#ec6d08;stop-opacity:1.0000000;"
         offset="0.00000000"
         id="stop4188" />
      <stop
         style="stop-color:#ff9009;stop-opacity:1.0000000;"
         offset="1.0000000"
         id="stop4189" />
    </linearGradient>
    <linearGradient
       inkscape:collect="always"
       xlink:href="#linearGradient4187"
       id="linearGradient4190"
       x1="200.04207"
       y1="226.20767"
       x2="287.54208"
       y2="226.20767"
       gradientUnits="userSpaceOnUse" />
    <linearGradient
       inkscape:collect="always"
       xlink:href="#linearGradient4187"
       id="linearGradient6077"
       gradientUnits="userSpaceOnUse"
       x1="200.04207"
       y1="226.20767"
       x2="287.54208"
       y2="226.20767"
       gradientTransform="translate(278.2139,-127.828)" />
    <linearGradient
       inkscape:collect="always"
       xlink:href="#linearGradient4187"
       id="linearGradient6094"
       gradientUnits="userSpaceOnUse"
       gradientTransform="translate(278.2139,-127.828)"
       x1="200.04207"
       y1="226.20767"
       x2="287.54208"
       y2="226.20767" />
    <linearGradient
       inkscape:collect="always"
       xlink:href="#linearGradient4187"
       id="linearGradient1110"
       gradientUnits="userSpaceOnUse"
       x1="200.04207"
       y1="226.20767"
       x2="287.54208"
       y2="226.20767"
       gradientTransform="translate(-199.79207,-182.20767)" />
  </defs>
  <rect
     style="display:block;visibility:visible;fill:#ffffff;fill-opacity:1;fill-rule:nonzero;stroke:#ff790c;stroke-width:0.5;stroke-linecap:butt;stroke-linejoin:round;stroke-miterlimit:4;stroke-dasharray:none;stroke-dashoffset:0;stroke-opacity:1;marker:none;marker-start:none;marker-mid:none;marker-end:none"
     id="rect2944"
     rx="1.25"
     ry="1.25"
     width="87.5"
     height="87.5"
     x="0.25"
     y="0.25" />
  <path
     style="display:block;visibility:visible;fill:url(#linearGradient1110);fill-opacity:1;fill-rule:nonzero;stroke:none;stroke-width:0.344507;stroke-linecap:butt;stroke-linejoin:round;stroke-miterlimit:4;stroke-dashoffset:0;stroke-opacity:1;marker:none;marker-start:none;marker-mid:none;marker-end:none"
     d="m 1.4891812,0.26107759 c -0.69250002,0 -1.25000002,0.5575 -1.25000002,1.25000001 v 1.875 C 1.0225412,1.6477076 2.7410212,0.41733759 4.7704312,0.41732759 c 2.76,0 5,2.24001001 5,5.00000001 0,2.75999 -2.24,5.0000104 -5,5.0000004 -2.02941,0 -3.74789,-1.2303804 -4.53125002,-2.9687504 V 26.167328 c 1.46220002,0.31802 2.97372002,0.5 4.53125002,0.5 11.7377698,0 21.2524498,-9.51465 21.2499998,-21.2500004 3.7e-4,-1.7893 -0.30248,-3.49605 -0.71875,-5.15625001 z m 38.9999998,0 c 0.24339,1.69720001 0.53162,3.39167001 0.53125,5.15625001 0.0023,11.1367904 -5.12697,20.9751504 -13.03125,27.6250004 18.14737,1.98476 32.31638,17.20297 32.3125,35.875 0.0014,6.92278 -2.03935,13.34153 -5.40625,18.84375 h 11.375 c 3.65037,-9.98722 11.48816,-17.86307 21.468747,-21.53125 v -23.4375 C 68.813671,41.578938 53.797691,25.989128 53.801681,6.7610776 c -4.6e-4,-2.22398 0.27304,-4.38659 0.65625,-6.50000001 z m 29.4375,0 c -0.66777,2.06340001 -1.12547,4.21420001 -1.125,6.50000001 -0.0023,10.9425304 8.30384,19.8323104 18.937497,21.0000004 v -16.625 c -1.57428,-0.84227 -2.6875,-2.4658704 -2.6875,-4.3750004 1e-5,-1.90765 1.11522,-3.50087 2.6875,-4.34375 v -0.90625 c 0,-0.69250001 -0.55748,-1.25000001 -1.25,-1.25000001 z M 4.7704312,4.1673276 c -0.69,0 -1.25,0.56001 -1.25,1.25 0,0.69 0.56,1.25001 1.25,1.25 0.69,0 1.25,-0.55999 1.25,-1.25 0,-0.69 -0.56,-1.24999 -1.25,-1.25 z M 0.23918118,41.167328 v 0.75 c 0.21562,-0.19019 0.3738,-0.43973 0.59375,-0.625 -0.20453,-0.02237 -0.39024,-0.09928 -0.59375,-0.125 z m 23.81249982,6.5 c -11.73778,0 -21.2524198,9.51468 -21.2499998,21.25 -0.0017,8.24082 4.73514,15.31878 11.5937498,18.84375 h 19.3125 c 6.85861,-3.52498 11.59547,-10.60294 11.59375,-18.84375 0.0024,-11.73531 -9.51223,-21.25001 -21.25,-21.25 z m 0,16.25 c 2.76,0 5,2.24 5,5 0,2.75999 -2.24,5 -5,5 -2.76,0 -5,-2.24 -5,-5 1e-5,-2.76 2.24,-5 5,-5 z m 0,3.75 c -0.69,0 -1.25,0.56 -1.25,1.25 0,0.69 0.56,1.25 1.25,1.25 0.69,0 1.25,-0.56 1.25,-1.25 0,-0.69 -0.56,-1.25 -1.25,-1.25 z m 63.687497,15.375 c -1.81757,1.32692 -3.4339,2.893 -4.75,4.71875 h 3.5 c 0.6925,0 1.25002,-0.5575 1.25,-1.25 z"
     id="rect1061" />
  <path
     style="font-style:normal;font-variant:normal;font-weight:normal;font-stretch:normal;font-size:64px;font-family:'Arial Black';writing-mode:lr-tb;text-anchor:start;fill:#ff790c;fill-opacity:1;stroke:none;stroke-width:1pt;stroke-linecap:butt;stroke-linejoin:miter;stroke-opacity:1"
     d="m 103.17546,0.94067759 h 23.53125 c 5.12497,5e-5 8.9583,1.21880001 11.5,3.65625001 2.56246,2.43754 3.84371,5.9062904 3.84375,10.4062504 -4e-5,4.62503 -1.39588,8.23961 -4.1875,10.84375 -2.77087,2.60419 -7.01045,3.90627 -12.71875,3.90625 h -7.75 v 17 H 103.17546 V 0.94067759 M 117.39421,20.471928 h 3.46875 c 2.72914,3e-5 4.64581,-0.46872 5.75,-1.40625 1.10414,-0.9583 1.65622,-2.17705 1.65625,-3.65625 -3e-5,-1.43746 -0.4792,-2.65621 -1.4375,-3.65625 -0.95836,-0.99996 -2.76044,-1.49996 -5.40625,-1.5 h -4.03125 v 10.21875"
     id="text4193" />
  <path
     style="font-style:normal;font-variant:normal;font-weight:normal;font-stretch:normal;font-size:64px;font-family:'Arial Black';writing-mode:lr-tb;text-anchor:start;fill:#ff790c;fill-opacity:1;stroke:none;stroke-width:1pt;stroke-linecap:butt;stroke-linejoin:miter;stroke-opacity:1"
     d="m 184.75947,0.94067759 h 14.15625 V 18.253178 L 213.75947,0.94067759 h 18.8125 l -16.6875,17.28125041 17.4375,28.53125 h -17.4375 l -9.65625,-18.84375 -7.3125,7.65625 v 11.1875 H 184.75947 V 0.94067759"
     id="text4196" />
  <path
     style="font-style:normal;font-variant:normal;font-weight:normal;font-stretch:normal;font-size:64px;font-family:Arial;writing-mode:lr-tb;text-anchor:start;fill:#ff790c;fill-opacity:1;stroke:none;stroke-width:1pt;stroke-linecap:butt;stroke-linejoin:miter;stroke-opacity:1"
     d="m 172.70186,35.315658 5.8125,0.71875 c -0.9167,3.39584 -2.61461,6.03126 -5.09375,7.90625 -2.47919,1.875 -5.64585,2.8125 -9.5,2.8125 -4.85418,0 -8.70834,-1.48958 -11.5625,-4.46875 -2.83333,-2.99999 -4.25,-7.1979 -4.25,-12.59375 0,-5.58331 1.4375,-9.91664 4.3125,-13 2.87499,-3.0833 6.60416,-4.62496 11.1875,-4.625 4.43748,4e-5 8.06248,1.51045 10.875,4.53125 2.81247,3.02086 4.21872,7.27086 4.21875,12.75 -3e-5,0.33335 -0.0105,0.83335 -0.0312,1.5 h -24.75 c 0.20833,3.64585 1.23958,6.43751 3.09375,8.375 1.85416,1.93751 4.16665,2.90626 6.9375,2.90625 2.06248,1e-5 3.8229,-0.54166 5.28125,-1.625 1.45831,-1.08332 2.61456,-2.81249 3.46875,-5.1875 m -18.46875,-9.09375 h 18.53125 c -0.25002,-2.79164 -0.95836,-4.88539 -2.125,-6.28125 -1.79169,-2.16664 -4.1146,-3.24997 -6.96875,-3.25 -2.58335,3e-5 -4.76043,0.86461 -6.53125,2.59375 -1.75001,1.72919 -2.71876,4.04169 -2.90625,6.9375"
     id="text4199" />
  <path
     d="m 107.8113,84.008968 c -4.13484,-2.34472 -4.8884,-3.99287 -4.91235,-10.74397 -0.0206,-5.81064 0.13404,-5.83874 3.85508,-5.63878 4.26029,0.2283 3.82557,1.08911 3.59668,3.97029 -0.79098,9.95622 2.33197,12.0442 10.53435,7.04321 6.94411,-4.23382 7.0101,-4.21157 10.32494,0.52797 1.58886,2.21876 4.09345,2.00723 6.75518,1.36901 8.04321,-2.15517 14.56234,-6.5701 22.03763,-13.32495 10.99306,-10.99306 13.48458,-10.50356 2.73363,0.24739 -10.10587,10.10587 -23.97048,18.16614 -25.75745,18.23433 -1.78697,0.06819 -4.10052,-1.44131 -5.97934,-3.59286 -1.87882,-2.15155 -3.49902,-4.20654 -4.29564,-4.27473 -0.79662,-0.06819 -1.99296,1.74211 -6.21175,4.27473 -4.1541,2.49378 -8.66513,4.18559 -12.68096,1.90836 z m 56.21866,-1.77223 c -1.46727,-3.82362 1.29283,-5.17116 5.21426,-7.72934 3.82526,-2.49546 7.75883,-3.21847 17.23073,-10.80596 6.56816,-5.52674 10.94989,-4.16614 13.00941,4.03963 2.23122,6.58438 2.85442,5.80343 8.0548,1.0536 2.55722,-2.33565 4.38541,-4.38301 6.04767,-4.24664 3.47014,0.13637 7.35937,5.11049 9.75525,9.7436 3.98886,6.96758 7.11347,7.64931 13.47531,3.32166 1.81695,-1.74124 3.26761,-3.19902 3.85217,-2.61312 1.63223,1.63601 -5.91642,7.87391 -10.16397,7.87391 -4.11118,0 -5.86049,-2.47271 -9.84337,-6.34363 -3.58992,-3.489 -4.96926,-6.48 -6.48968,-6.48 -1.11132,0 -3.07562,0.45048 -5.04697,2.00115 -6.80663,6.32699 -8.13226,4.24715 -11.38948,-2.13753 -1.58218,-3.10133 -3.40422,-5.50241 -4.48956,-5.50241 -1.08535,0 -6.83341,4.0574 -16.73154,12.41594 -9.3422,7.88906 -11.63014,7.06658 -12.48503,5.40914 z"
     id="path5438"
     style="fill:#494949;fill-opacity:1"
     sodipodi:nodetypes="ccccccccczzzzcczccccccczcccczcc" />
</svg>
